# xmcd
#
# Track frame offsets:
#	150
#	15526
#	28497
#	43061
#	57311
#	71612
#	83788
#	98721
#	113354
#	131339
#	142025
#	153824
#	189572
#	204585
#	220424
#
# Disc length: 3157 seconds
#
# Revision: 2
# Processed by: cddbd v1.5.2PL0 Copyright (c) Steve Scherf et al.
# Submitted via: audiograbber 1.83.01
#
DISCID=d00c530f
DTITLE=Freddy Pfister Band - Sogar das Edelweiß wird rot, wenn du dein Dirndl t
DTITLE=rägst
DYEAR=2009
DGENRE=volkstümliche Schlager
TTITLE0=Sogar das Edelweiß wird rot, wenn du dein Dirndl trägst
TTITLE1=I sing a Liadl heit für di
TTITLE2=Heut wird's heiß
TTITLE3=Heut hab ich endlich in dein Herz geseh'n
TTITLE4=Für di
TTITLE5=Hey, Diandl tanz mit mir
TTITLE6=KIWI-Polka
TTITLE7=Halt mich fest
TTITLE8=Manchmal träum ich von den Bergen
TTITLE9=I dank dem Herrgott für die Berge
TTITLE10=Timple-Boarischer
TTITLE11=Freddy's Schürzenjäger-Medley (Marsch der freiwilligen Feuerwehr - Tir
TTITLE11=ol, i bin a Kind von dir - Damenwahl - ...)
TTITLE12=Sternenkind
TTITLE13=Die Stunde Null der Zärtlichkeit
TTITLE14=Sogar das Edelweiß wird rot, wenn du dein Dirndl trägst (Party-Version
TTITLE14=)
EXTD=
EXTT0=
EXTT1=
EXTT2=
EXTT3=
EXTT4=
EXTT5=
EXTT6=
EXTT7=
EXTT8=
EXTT9=
EXTT10=
EXTT11=
EXTT12=
EXTT13=
EXTT14=
PLAYORDER=
